HIERARCHY
ROOT mug1
{
	OFFSET 0.000000 0.000000 0.000000
	CHANNELS 6 Xposition Yposition Zposition Yrotation Xrotation Zrotation
	End Site
	{
		OFFSET 0.000000 0.000000 0.000000
	}
}
MOTION
Frames: 105
Frame Time: 0.008333334
1.737442 3.497129 2.586390 100.241600 5.047733 -0.440826 
1.737048 3.496937 2.583861 99.313250 4.997828 -0.476410 
1.736653 3.496744 2.581331 98.383930 4.947297 -0.511231 
1.736258 3.496552 2.578802 97.453760 4.896154 -0.545258 
1.735863 3.496360 2.576272 96.522820 4.844420 -0.578461 
1.735469 3.496167 2.573743 95.591220 4.792114 -0.610840 
1.735074 3.495975 2.571213 94.659130 4.739254 -0.642395 
1.734679 3.495782 2.568684 93.726650 4.685862 -0.673096 
1.734284 3.495590 2.566154 92.793890 4.631958 -0.702911 
1.733889 3.495398 2.563625 91.860980 4.577563 -0.731873 
1.733495 3.495205 2.561095 90.928030 4.522698 -0.759918 
1.733100 3.495013 2.558566 89.995220 4.467385 -0.787079 
1.732705 3.494820 2.556036 89.062580 4.411645 -0.813324 
1.732310 3.494628 2.553507 88.130320 4.355503 -0.838623 
1.731915 3.494436 2.550977 87.198510 4.298978 -0.863037 
1.731520 3.494243 2.548448 86.267290 4.242097 -0.886475 
1.731126 3.494051 2.545918 85.336780 4.184882 -0.908966 
1.730731 3.493858 2.543389 84.407070 4.127355 -0.930542 
1.730336 3.493666 2.540859 83.478350 4.069541 -0.951111 
1.729941 3.493474 2.538330 82.550670 4.011462 -0.970764 
1.729546 3.493281 2.535800 81.624180 3.953143 -0.989410 
1.730731 3.492491 2.532272 80.910000 3.897448 -0.891632 
1.730566 3.492311 2.528363 80.196300 3.887885 -0.976379 
1.730742 3.492735 2.524674 79.488410 3.869595 -1.051453 
1.731946 3.491783 2.520643 79.039400 3.799155 -0.949982 
1.731839 3.492106 2.516232 78.556720 3.741695 -0.992371 
1.732170 3.490766 2.511785 78.241410 3.754031 -0.820252 
1.730630 3.491979 2.507624 77.786040 3.707371 -1.067810 
1.730337 3.491803 2.503998 77.466770 3.752806 -1.046295 
1.729912 3.491669 2.501327 77.260270 3.631975 -1.089996 
1.729918 3.491491 2.499388 77.089710 3.679090 -1.046600 
1.729759 3.491153 2.497905 76.884130 3.782269 -1.034210 
1.729667 3.490731 2.497726 76.794270 3.767189 -0.998901 
1.729187 3.491693 2.498255 76.758710 3.635153 -1.040283 
1.729346 3.491346 2.498327 76.784880 3.749242 -1.026215 
1.729475 3.491305 2.498405 76.778030 3.752702 -1.015320 
1.729390 3.491274 2.498551 76.786040 3.791781 -1.013947 
1.729407 3.491267 2.498846 76.771670 3.748131 -1.028564 
1.729426 3.491391 2.498695 76.765370 3.796471 -1.035522 
1.729687 3.491462 2.498360 76.802250 3.793189 -0.981262 
1.729684 3.491624 2.498582 76.806340 3.816169 -0.993927 
1.729844 3.490932 2.497907 76.825230 3.868510 -0.939117 
1.730135 3.490742 2.497385 76.843030 3.787413 -0.917694 
1.729836 3.491373 2.497062 76.810070 3.818773 -0.965790 
1.729877 3.490733 2.496305 76.803630 3.897688 -0.919586 
1.730200 3.490587 2.496056 76.790770 3.831210 -0.926422 
1.729904 3.491130 2.495158 76.750460 3.620881 -0.964874 
1.729609 3.491055 2.494679 76.709010 3.832214 -1.046051 
1.729748 3.490743 2.494494 76.732580 3.842696 -1.037415 
1.729823 3.490573 2.494311 76.747250 3.792076 -1.042633 
1.730207 3.490132 2.494105 76.825730 3.796632 -0.943085 
1.729962 3.490491 2.494289 76.797970 3.572209 -1.015747 
1.729996 3.490346 2.493883 76.776250 3.714463 -0.993042 
1.730142 3.490368 2.493854 76.767550 3.732645 -1.017151 
1.730103 3.490836 2.493616 76.755020 3.719216 -1.063690 
1.730154 3.490782 2.493705 76.763380 3.723625 -1.056305 
1.729596 3.491277 2.493524 76.703280 3.688519 -1.132874 
1.729690 3.491122 2.493480 76.728860 3.736866 -1.094482 
1.729685 3.491018 2.493656 76.735950 3.653377 -1.076477 
1.729966 3.490887 2.493769 76.774890 3.695727 -1.037170 
1.730522 3.490785 2.494179 76.766560 3.698600 -1.020660 
1.730729 3.490964 2.495204 76.788010 3.751367 -0.997803 
1.731016 3.491163 2.496635 76.831110 3.840770 -0.969727 
1.731952 3.491364 2.498596 76.896350 3.893095 -0.992920 
1.732109 3.492332 2.500634 76.908500 3.888186 -1.070007 
1.732116 3.492084 2.502251 76.930440 3.955767 -0.969452 
1.731600 3.491921 2.503031 76.880090 3.879994 -0.951233 
1.730855 3.491544 2.503238 76.839450 3.821258 -0.961548 
1.730886 3.492127 2.504070 76.862860 3.675219 -1.032928 
1.731080 3.491942 2.503976 76.880750 3.752020 -1.002625 
1.730464 3.491810 2.503681 76.858520 3.816315 -0.952026 
1.730065 3.491573 2.503636 76.854320 3.838568 -0.939880 
1.730375 3.491551 2.503520 76.846500 3.839769 -0.953186 
1.730536 3.491737 2.503301 76.849150 3.789517 -0.965790 
1.730381 3.491874 2.503140 76.839160 3.731611 -0.965698 
1.730494 3.492151 2.503355 76.835100 3.723789 -0.966126 
1.730657 3.492107 2.503385 76.866450 3.678721 -0.974915 
1.730404 3.492064 2.503451 76.849420 3.735267 -0.989471 
1.730685 3.491980 2.503535 76.872800 3.727238 -0.973023 
1.730693 3.491986 2.503199 76.904770 3.741888 -0.983032 
1.730422 3.492087 2.501462 77.016500 3.729294 -1.001221 
1.731476 3.491542 2.497687 77.242230 3.701461 -0.999115 
1.731580 3.491725 2.491794 77.573790 3.584093 -1.071747 
1.734986 3.491565 2.487310 77.741040 3.712838 -1.045227 
1.740960 3.491714 2.486775 77.736600 3.754153 -1.029419 
1.746863 3.491471 2.486058 77.598020 3.943069 -1.007080 
1.753153 3.490495 2.484571 77.148530 3.624225 -1.011017 
1.759920 3.490581 2.481728 76.400830 3.718988 -1.084412 
1.767411 3.490057 2.477686 75.574660 3.566526 -1.048340 
1.773861 3.489156 2.474387 74.725570 3.596588 -1.053314 
1.779574 3.488220 2.469840 73.915240 3.519336 -0.999176 
1.782777 3.488779 2.465065 72.973180 3.572539 -1.102203 
1.787163 3.488044 2.460686 72.058980 3.371844 -1.118866 
1.793822 3.487362 2.456120 70.981200 3.259561 -1.048767 
1.799249 3.487318 2.451062 69.641330 3.206546 -1.142761 
1.805691 3.486583 2.447354 68.253030 3.141015 -1.132141 
1.812105 3.486133 2.444227 66.744760 3.155042 -1.110168 
1.819537 3.486395 2.442171 65.143950 3.061176 -1.223633 
1.828394 3.485833 2.440026 63.431620 2.993462 -1.223297 
1.837400 3.485692 2.439608 61.482650 3.037592 -1.278564 
1.847959 3.484993 2.438785 59.462440 2.904577 -1.210571 
1.857974 3.484772 2.439085 57.369080 2.731086 -1.342163 
1.867965 3.485020 2.439619 55.195280 2.666110 -1.380768 
1.876944 3.484306 2.441755 53.229050 2.542998 -1.354492 
1.884405 3.483771 2.443810 51.425990 2.583446 -1.250031 
